<?xml version="1.0" encoding="utf-8"?>
<!-- Generator: Adobe Illustrator 23.0.6, SVG Export Plug-In . SVG Version: 6.00 Build 0)  -->
<svg version="1.1" id="Layer_1" xmlns="http://www.w3.org/2000/svg" xmlns:xlink="http://www.w3.org/1999/xlink" x="0px" y="0px"
	 viewBox="0 0 1597.7 400.8" style="enable-background:new 0 0 1597.7 400.8;" xml:space="preserve">
<style type="text/css">
	.st0{fill:#FFAA45;}
	.st1{fill:#FFFFFF;}
</style>
<title>gp</title>
<path class="st0" d="M1180,68.6c-4.6-8.5-10.8-16-18.3-22.1c-8-6.6-16.7-12.2-26-16.6c-9.7-4.7-19.7-8.8-30-12.1s-20.4-6.1-30.2-8.2
	s-18.7-3.8-26.7-5c-9.4-1.2-19.3-2.3-29.5-3.2C1009,0.5,999.2,0,989.7,0h-1h-0.5c-8.1,0-16.3,0.4-24.5,1
	c-16.7,0.5-34.6,1.2-48.4,3.1c-41.9,6-82.3,14.6-114.9,45.1c-25.5,23.9-31,59.5,9.6,75c16.9,6.5,21,6.3,22.3-11.6
	c2.1-29.2,26.5-49.8,53.5-59.5c3.3-1.2,6.7-2.4,9.9-3.5c13.3-3.3,26.8-6.1,40.4-8.4c19-3.2,38.3-4.8,57.5-4.8
	c9.1,0,19.5,0.4,31.1,1.1s23.4,2.1,35.3,4.1c11.7,2,23.4,4.5,34.8,7.8c10.5,2.9,20.6,6.8,30.2,11.9c8.1,4.1,15.3,9.7,21.4,16.4
	c5.3,6,8.2,13.7,8.2,21.7c0.1,10.1-3.5,19.9-10.1,27.6c-6.8,8-15.5,15.3-26.2,21.7c-11.4,6.7-23.4,12.2-35.9,16.4
	c-13.2,4.6-26.3,8.4-39.2,11.6c-12.9,3.2-25.1,5.8-36.4,7.8c-5.6,1-10.7,1.8-15.1,2.5c-4.8,0.7-9.3-2.7-10-7.5c-0.1-1-0.1-2,0.1-2.9
	c0.2-1,0.4-2,0.6-3.1c1.2-6.2,2.2-12.9,3.1-20.1c0.9-7.1,1.4-14.2,1.6-21.2c0.2-6.4-0.4-12.9-1.8-19.1c-1.1-5.3-3.6-10.2-7.3-14.1
	c-3.5-3.6-8.5-5.5-15-5.5c-3.2,0-5.8,2.2-7.7,6.6c-2.2,5.3-3.7,10.9-4.6,16.6c-1.2,6.7-2.1,14-2.9,22.1s-1.4,15.9-2,23.5
	s-1.1,14.4-1.5,20.5v0.2c-0.5,7.2-5.9,13.1-13,14.3c-4.4,0.7-8.8,1.5-13.1,2.2c-6.7,1.2-11.9,6.6-12.8,13.3
	c-0.8,4.9,2.6,9.5,7.5,10.3c0.7,0.1,1.4,0.1,2.1,0.1c5.7-0.6,11.4-1.2,17.1-1.8c4.9-0.5,9.3,3.1,9.8,8.1c0,0.3,0,0.7,0,1
	c0.1,19,0.4,35.2,1.1,48.6c0.7,15.8,3.2,29.2,7.3,40.1c1.5,4.9,3.4,7.3,5.7,7.3c3.8,0,7.1-4,9.7-12.1c3-9.6,5.2-19.4,6.6-29.4
	c1.8-11.6,3.2-23.7,4.2-36.5c0.8-9.5,1.3-18.1,1.7-25.8c0.1-4.3,3.3-7.8,7.5-8.5c7.8-1.1,16.9-2.5,27.4-4.2
	c14-2.3,28.7-5.3,44.1-9.1c15.7-3.9,31.1-8.7,46.3-14.4c14.6-5.4,28.6-12.4,41.7-21c11.9-7.8,22.1-17.7,30.2-29.4
	c7.8-11.4,11.7-24.6,11.7-39.5C1186.9,86.9,1184.6,77.2,1180,68.6z"/>
<path class="st0" d="M1233.3,131.2c0.5,2.4,0.2,4.8-0.9,7c-1.1,2.3-2.7,4.3-4.7,5.8c-2.2,1.8-4.7,3.2-7.4,4.3
	c-2.8,1.1-5.8,1.9-8.8,2.4c-5.8,0.7-11.6,0.1-17.2-1.7s-8.8-5.1-9.5-9.9c-0.9-5,0.6-9.3,4.7-12.8s9.5-5.9,16.3-7
	c6.1-1.2,12.4-0.7,18.2,1.5C1229.5,122.9,1232.5,126.4,1233.3,131.2z M1262.6,220.5c-1.4,5-0.2,6.4-2.4,12.5s-7.7,16.6-10.7,23.1
	c-2.7,6.2-6.2,12-10.3,17.3c-3.5,4.7-7.9,8.6-12.8,11.6c-4.7,2.7-10.3,3.4-15.4,1.8c-8.4-2.4-14.4-6.9-18-13.5
	c-3.7-7.1-5.9-14.8-6.3-22.8c-0.6-9.4-0.5-18.9,0.2-28.3c0.8-10.2,1.2-20.1,1.2-29.9c0-7.3,1.9-12.3,5.8-15
	c3.7-2.7,8.3-3.8,12.8-3.2c4.6,0.6,8.9,2.7,12.1,5.9c3.4,3.1,4.8,7.8,3.7,12.3c-1.2,5.5-2.4,12.3-3.5,20.5s-1.8,16.1-2.1,23.7
	c-0.4,6.5-0.1,13.1,0.7,19.6c0.8,5.5,2.6,8.2,5.4,8.2c1.9,0,4.1-2.4,6.8-7.1c2.7-4.7,2.6-12,7.7-16.7c4.8-4.3,4.8-12.8,7-19.2"/>
<path class="st0" d="M1231.6,253.8c0.6-5.8,7.8-29.1,12.5-37.5c5-8.8,10.9-17.2,17.5-24.8c7-8.2,14.9-15.6,23.6-22.1
	s17.4-10.9,26.2-13c7.5-1.5,13.8-1.4,18.9,0.2c4.8,1.5,9.1,4.4,12.2,8.4c3,4.1,5,8.9,5.8,13.9c0.9,5.5,0.9,11.1,0,16.6
	c-1.2,6.2-3.6,12.2-7,17.6c-3.8,6.4-8.1,12.5-12.8,18.2c-4.8,5.9-9.9,11.4-15.4,16.7c-4.6,4.5-9.5,8.6-14.7,12.3
	c3.4,1.5,6.6,3.2,9.8,5c3.1,1.8,6.1,3.7,8.9,5.5c5.5-1.5,11.1-2.3,16.8-2.3c2.4-0.1,4.7,0.6,6.5,2c1.5,1.2,2.3,2.9,2.3,4.8
	c0,1.8-0.7,3.5-1.9,4.8c-1.5,1.5-3.5,2.2-5.6,2c-1.1,0-2.2,0.1-3.3,0.2c-0.9,0.2-1.9,0.2-2.8,0.2c6.6,7.7,10.8,17.1,12.2,27.1
	c1.2,9.8,0.5,19.7-2.1,29.2c-2.7,9.7-7.2,18.9-13.1,27.1c-5.8,8.2-12.8,15.4-20.8,21.4c-7.5,5.6-16.1,9.7-25.2,11.9
	c-8.8,2.1-18.1,1.7-26.6-1.4c-8.4-3-13.2-9.5-14.5-19.4c-1.2-9.9,0.3-20.8,4.7-32.8c4.4-12,11.1-24,20.1-36
	c8.5-11.6,19.1-21.4,31.3-29c-4-4-10-6.7-17.8-8.2c-5-0.6-8.4-1.9-10.3-3.9c-1.8-1.8-2.7-4.3-2.6-6.8c0.3-3,1.3-5.9,3-8.4
	c2-3.3,4.4-6.3,7-9.1c2.8-3,6.9-8.1,12.4-15.3c5.5-7.1,10.7-14.4,15.7-21.9c4.4-6.5,8.4-13.3,11.9-20.3c3-6.1,3.2-9.6,0.7-10.5
	c-2.5-1.2-6.7,0.5-12.6,5c-6.6,5.2-12.8,11-18.5,17.3c-6.4,7-26.7,39.7-31,48 M1264.1,378.9c5.3,0,10.8-3,16.4-9.1
	c5.9-6.6,10.8-14,14.5-22.1c4.1-8.8,7-18.2,8.7-27.8c1.7-9.9,1.3-18.8-1.2-26.7c-9.5,6.5-17.6,14.7-24.1,24.2
	c-6.2,8.8-11.4,18.3-15.4,28.3c-3.6,9.1-5.4,16.9-5.4,23.5S1259.8,379,1264.1,378.9L1264.1,378.9z"/>
<path class="st0" d="M1353.3,240.8c-0.7,2.9-2.5,5.5-4.9,7.3c-2.2,1.9-4.9,3.2-7.7,3.9c-2.5,0.5-5-0.5-6.5-2.5
	c-1.9-2.1-2.3-6.1-1.4-11.9c0.6-5.8,3.3-12.8,7.9-21.2c5-8.8,10.9-17.2,17.5-24.8c7-8.2,14.9-15.6,23.6-22.1s17.4-10.9,26.2-13
	c7.5-1.5,13.8-1.4,18.9,0.2c4.8,1.5,9.1,4.4,12.2,8.4c3,4.1,5,8.9,5.8,13.9c0.9,5.5,0.9,11.1,0,16.6c-1.2,6.2-3.6,12.2-7,17.6
	c-3.8,6.4-8.1,12.5-12.8,18.2c-4.8,5.9-9.9,11.4-15.4,16.7c-4.6,4.5-9.5,8.6-14.7,12.3c3.4,1.5,6.6,3.2,9.8,5
	c3.1,1.8,6.1,3.7,8.9,5.5c5.5-1.5,11.1-2.3,16.8-2.3c2.4-0.1,4.7,0.6,6.5,2c1.5,1.2,2.3,2.9,2.3,4.8c0,1.8-0.7,3.5-1.9,4.8
	c-1.5,1.5-3.5,2.2-5.6,2c-1.1,0-2.2,0.1-3.3,0.2c-0.9,0.2-1.9,0.2-2.8,0.2c6.6,7.7,10.8,17.1,12.2,27.1c1.2,9.8,0.5,19.7-2.1,29.2
	c-2.7,9.7-7.2,18.9-13.1,27.1c-5.8,8.2-12.8,15.4-20.8,21.4c-7.5,5.6-16.1,9.7-25.2,11.9c-8.8,2.1-18.1,1.7-26.6-1.4
	c-8.4-3-13.2-9.5-14.5-19.4s0.3-20.8,4.7-32.8c4.9-12.9,11.6-25.1,20.1-36c8.5-11.6,19.1-21.4,31.3-29c-4.1-4-10-6.7-17.8-8.2
	c-5-0.6-8.4-1.9-10.3-3.9c-1.8-1.8-2.7-4.3-2.6-6.8c0.3-3,1.3-5.9,3-8.4c2-3.3,4.4-6.3,7-9.1c2.8-3,6.9-8.1,12.4-15.3
	s10.7-14.4,15.7-21.9c4.4-6.5,8.4-13.3,11.9-20.3c3-6.1,3.2-9.6,0.7-10.5c-2.5-1.2-6.7,0.5-12.6,5c-6.6,5.2-12.8,11-18.4,17.3
	c-6.4,7-12.2,14.3-17.5,22.1C1357.9,228.7,1354.6,235.3,1353.3,240.8z M1360.8,379c5.3,0,10.7-3,16.3-9.1
	c5.9-6.6,10.8-14.1,14.5-22.2c4.1-8.9,7-18.2,8.6-27.8c1.7-9.9,1.3-18.8-1.2-26.7c-9.5,6.5-17.6,14.7-24.1,24.2
	c-6.2,8.8-11.4,18.3-15.4,28.3c-3.6,9.1-5.4,16.9-5.4,23.5C1354.3,375.7,1356.5,379,1360.8,379z"/>
<path class="st0" d="M1503.7,162.8c4.3,0.9,8.2,2.9,11.4,5.9c3.2,2.9,5.9,6.3,8.2,10c2.4-2.7,5.8-4.3,9.3-4.6
	c3.7-0.3,7.3,0.2,10.7,1.6c3.3,1.3,6.3,3.5,8.4,6.4c2.2,2.9,3,6.7,2.3,10.3c-1.2,5.5-2.4,12.3-3.5,20.5s-1.8,16.1-2.1,23.7
	c-0.4,6.5-0.1,13.1,0.7,19.6c0.8,5.5,2.4,8.2,4.9,8.2c1.9,0,4.1-2.4,6.8-7.1c3-5.4,5.6-11,7.9-16.7c2.7-6.4,5.1-12.8,7.3-19.2
	c1.7-4.8,3.1-9.6,4.2-14.6c0.9-3,2.5-5.1,4.7-6.2c1.9-1,4.2-1.4,6.3-0.9c2.1,0.5,3.9,1.7,5.1,3.4c1.4,1.8,1.6,4.1,0.7,6.8
	c-0.6,1.8-1.6,5.3-3,10.3s-3.2,10.6-5.4,16.7s-4.8,12.4-7.7,18.9c-2.7,6.2-6.2,12-10.3,17.3c-3.5,4.7-8,8.7-13.1,11.6
	c-4.7,2.7-10.4,3.4-15.7,1.8c-8.6-2.1-15.8-8-19.6-16c-2.4,7.1-5.9,13.8-10.3,19.9c-4.3,5.8-10.1,10.4-16.8,13
	c-6.5,2.1-12.3,2.6-17.3,1.4c-9-2.4-16.2-7.9-21.5-16.4c-5.5-9.1-9.2-19.1-10.8-29.6c-1.9-11.6-2-23.5-0.5-35.1
	c1.3-11.4,4.6-22.5,9.6-32.8c4.4-9.2,11.1-17.1,19.4-23C1482.4,162.4,1492.2,160.7,1503.7,162.8z M1515.8,208.8
	c-0.6-5.1-1.8-10.1-3.5-15c-1.7-4.8-4.3-7.6-7.7-8.2c-5-0.9-9.4,0.8-13.3,5.2s-7.1,10.3-9.6,17.6c-2.6,7.8-4.4,15.8-5.4,23.9
	c-1.1,8.2-1.4,16.4-0.9,24.6c0.3,6.8,1.5,13.4,3.7,19.8c2,5.5,5,8.5,9.1,9.1s7.9-1.5,11.4-6.4c4-5.7,7.2-12,9.3-18.7
	c2.8-8.2,4.8-16.7,6.1-25.3C1516.5,226.7,1516.8,217.7,1515.8,208.8L1515.8,208.8z"/>
<g>
	<path class="st1" d="M222.9,287.3h15.7l-7.1-20.8h-48.2l-7.5,20.8h15.9v19.6h-53.3v-19.6h11.7l36.3-97.3h-11.5v-19.6h64.8V190
		h-11.3l35.9,97.3H276v19.6h-53.3v-19.6H222.9z M226.3,246.5l-19-52.3l-18.6,52.3H226.3z"/>
	<path class="st1" d="M301.1,190H287v-19.6h60.9c34.5,0,48.4,13.9,48.4,39.1c0,18.8-10.3,30.7-28.9,35.9c12.1,9.3,22.2,29,25.8,41.8
		H409v19.6h-53.9v-19.6h12.3c-2.2-10.3-13.5-31.7-24.8-39.2h-17.8v39.2h13.5v19.6H287v-19.6h13.9V190H301.1z M347.9,190h-23v39.2
		h21.4c18.8,0,25.6-7.9,25.6-19.4S366,190,347.9,190z"/>
	<path class="st1" d="M434.4,190h-14.3v-19.6h48.2c53.5,0,70.4,21,70.4,68.2c0,46.6-17,68.2-70.4,68.2h-48.2v-19.6h14.3V190z
		 M472.1,287.3c32.3,0,42.6-13.7,42.6-49c0-34.7-11.9-48.2-42.6-48.2h-13.9v97.3L472.1,287.3z"/>
	<path class="st1" d="M652.4,266.5v40.3H549.9v-19.6h14.4V190h-14.4v-19.6h101.7v39.9h-22V190h-41.8v38.3h41.6v19.6h-41.6v39.3h41.8
		v-20.8L652.4,266.5L652.4,266.5z"/>
	<path class="st1" d="M745.7,170.5h56.7V190h-13.5v116.8h-26.2L704,208.6v78.7h21.2v19.6h-58.3v-19.6h13.3V190h-13.3v-19.6h40.6
		l57.7,98V190h-19.4L745.7,170.5L745.7,170.5z"/>
	<path class="st1" d="M125.8,239v-0.2H64.9v20h35.8v7.9c0,10.8-8.3,19.7-19,20.5c-3.3,0.2-6.6,0.3-9.7,0.3
		c-31.8,0-44.3-20.1-44.3-49.6c0-28.2,12.5-47.4,43-47.4c1.2,0,2.3,0,3.4,0c1.2,0,2.3,0.2,3.4,0.4C87,193,93,202.5,90.9,212
		c-0.2,1-0.3,1.9-0.3,2.9c0,7.2,5.8,13,13,13h2.8c0.5,0,0.9-0.1,1.4-0.1c9.5-0.8,16.6-9,15.8-18.5c-1.7-21.5-18.7-38.6-40.3-40.4
		c-3.7-0.3-7.5-0.5-11.4-0.5C22.4,168.4,0,197.8,0,237.8c0,45.8,25.4,71.3,71.2,71.2h0.6c10.7,0,20.6-3.2,29-8.7v6.5h25.1v-67.9
		L125.8,239z"/>
</g>
</svg>
